<svg xmlns="http://www.w3.org/2000/svg" width="440.72" height="141.08" viewBox="0 0 440.72 141.08"><g transform="translate(-199.77 -227.49)"><path d="M341.15,339.83a5.053,5.053,0,0,0-2.12-.47c-.91,0-1.98.32-1.98,1.5,0,2.16,4.86,1.66,4.86,5.37,0,2.4-1.86,3.35-4.13,3.35a7.431,7.431,0,0,1-2.32-.47l.16-1.5a6.77,6.77,0,0,0,2.35.55,2.028,2.028,0,0,0,2.22-1.84c0-2.52-4.86-1.82-4.86-5.32,0-2,1.59-3.06,3.63-3.06a7.609,7.609,0,0,1,2.41.4l-.23,1.48Z" fill="#1d1d1b"/><path d="M353.07,344.73c0,3.16-1.6,4.85-4.39,4.85s-4.39-1.69-4.39-4.85v-6.6h1.62v6.39c0,2.16.68,3.65,2.77,3.65s2.77-1.48,2.77-3.65v-6.39h1.62v6.6Z" fill="#1d1d1b"/><path d="M356.03,338.13h2.77c2.24,0,4.39.36,4.39,3.05a2.618,2.618,0,0,1-2.33,2.56v.03a1.878,1.878,0,0,1,1.1,1.13l2.14,4.48h-1.85l-1.73-3.9c-.5-1.1-1.04-1.1-1.9-1.1h-.97v5h-1.62V338.12Zm1.62,4.84h1.38c1.54,0,2.45-.68,2.45-1.76,0-1.02-.78-1.66-2.27-1.66h-1.56v3.42Z" fill="#1d1d1b"/><path d="M371.17,349.39h-2.03l-4.26-11.26h1.81l3.48,9.84h.03l3.58-9.84h1.7l-4.33,11.26Z" fill="#1d1d1b"/><path d="M377.27,338.13h6.34v1.42h-4.72v3.29h4.29v1.42h-4.29v3.71h4.72v1.42h-6.34V338.13Z" fill="#1d1d1b"/><path d="M389.52,344.68l-4.42-6.55H387l3.37,5.05,3.29-5.05h1.9l-4.41,6.55v4.71h-1.62v-4.71Z" fill="#1d1d1b"/><path d="M409.55,337.94c3.44,0,5.44,2.48,5.44,5.82s-1.99,5.82-5.44,5.82-5.45-2.4-5.45-5.82S406.11,337.94,409.55,337.94Zm0,10.23c2.61,0,3.73-2.16,3.73-4.4s-1.23-4.42-3.73-4.4c-2.5-.02-3.73,2.11-3.73,4.4S406.94,348.17,409.55,348.17Z" fill="#1d1d1b"/><path d="M417.36,338.13h6.01v1.42h-4.39v3.29h4.2v1.42h-4.2v5.13h-1.62V338.13Z" fill="#1d1d1b"/><path d="M433.16,338.13h1.62v4.71h5.41v-4.71h1.62v11.26h-1.62v-5.13h-5.41v5.13h-1.62Z" fill="#1d1d1b"/><path d="M444.86,338.13h6.34v1.42h-4.71v3.29h4.29v1.42h-4.29v3.71h4.71v1.42h-6.34V338.13Z" fill="#1d1d1b"/><path d="M457.53,338.13h1.7l4.78,11.26h-1.77l-1.15-2.84h-5.54l-1.15,2.84h-1.7Zm.79,1.52-2.25,5.58h4.5Z" fill="#1d1d1b"/><path d="M465.79,338.13h1.62v9.84h4.73v1.42h-6.35Z" fill="#1d1d1b"/><path d="M475.43,339.55h-3.52v-1.42h8.65v1.42h-3.52v9.84h-1.62v-9.84Z" fill="#1d1d1b"/><path d="M482.43,338.13h1.62v4.71h5.41v-4.71h1.62v11.26h-1.62v-5.13h-5.41v5.13h-1.62Z" fill="#1d1d1b"/><path d="M494.11,347.59h1.82l-1.38,3.95h-1.46Z" fill="#1d1d1b"/><path d="M509.81,338.13h1.7l4.78,11.26h-1.77l-1.15-2.84h-5.54l-1.15,2.84h-1.7l4.83-11.26Zm.79,1.52-2.25,5.58h4.5l-2.25-5.58Z" fill="#1d1d1b"/><path d="M526.44,340.13a5.19,5.19,0,0,0-3.11-.77,4.4,4.4,0,0,0-.08,8.8,6.562,6.562,0,0,0,1.81-.19v-3.42h-2.38v-1.32h4v5.85a10.378,10.378,0,0,1-3.45.5c-3.58,0-5.96-2.29-5.96-5.87s2.53-5.77,5.98-5.77a8.618,8.618,0,0,1,3.32.56l-.13,1.63Z" fill="#1d1d1b"/><path d="M529.79,338.13h6.34v1.42h-4.72v3.29h4.29v1.42h-4.29v3.71h4.72v1.42h-6.34V338.13Z" fill="#1d1d1b"/><path d="M538.88,338.13h1.62v11.26h-1.62Z" fill="#1d1d1b"/><path d="M543.53,338.13h2.2l4.99,9.06h.03v-9.06h1.62v11.26H550.3l-5.12-9.26h-.03v9.26h-1.62Z" fill="#1d1d1b"/><path d="M563.99,340.13a5.19,5.19,0,0,0-3.11-.77,4.4,4.4,0,0,0-.08,8.8,6.562,6.562,0,0,0,1.81-.19v-3.42h-2.38v-1.32h4v5.85a10.378,10.378,0,0,1-3.45.5c-3.58,0-5.96-2.29-5.96-5.87s2.53-5.77,5.98-5.77a8.618,8.618,0,0,1,3.32.56l-.13,1.63Z" fill="#1d1d1b"/><path d="M339.59,357.11h1.7l4.78,11.26H344.3l-1.15-2.84h-5.54l-1.15,2.84h-1.7Zm.79,1.52-2.25,5.58h4.5Z" fill="#1d1d1b"/><path d="M347.85,357.11h2.2l4.99,9.06h.03v-9.06h1.62v11.26h-2.07l-5.12-9.26h-.03v9.26h-1.62Z" fill="#1d1d1b"/><path d="M359.39,357.11h3.34c3.35,0,6.03,2.06,6.03,5.53,0,3.77-2.3,5.73-6.03,5.73h-3.34Zm1.62,9.84h1.7c2.79,0,4.33-1.34,4.33-4.24a3.938,3.938,0,0,0-4.13-4.18h-1.9v8.42Z" fill="#1d1d1b"/><path d="M377.85,357.11h2.77c2.24,0,4.39.35,4.39,3.05a2.618,2.618,0,0,1-2.33,2.56v.03a1.878,1.878,0,0,1,1.1,1.13l2.14,4.48h-1.85l-1.73-3.9c-.5-1.1-1.04-1.1-1.9-1.1h-.97v5h-1.62V357.1Zm1.62,4.84h1.38c1.54,0,2.45-.68,2.45-1.76,0-1.02-.78-1.66-2.27-1.66h-1.56v3.42Z" fill="#1d1d1b"/><path d="M387.85,357.11h6.34v1.42h-4.72v3.29h4.29v1.42h-4.29v3.71h4.72v1.42h-6.34V357.11Z" fill="#1d1d1b"/><path d="M399.19,358.53h-3.52v-1.42h8.65v1.42H400.8v9.84h-1.62v-9.84Z" fill="#1d1d1b"/><path d="M406.11,357.11h1.62v11.26h-1.62Z" fill="#1d1d1b"/><path d="M410.67,357.11h2.77c2.24,0,4.39.35,4.39,3.05a2.618,2.618,0,0,1-2.33,2.56v.03a1.878,1.878,0,0,1,1.1,1.13l2.14,4.48h-1.85l-1.73-3.9c-.5-1.1-1.04-1.1-1.9-1.1h-.97v5h-1.62V357.1Zm1.62,4.84h1.38c1.54,0,2.45-.68,2.45-1.76,0-1.02-.78-1.66-2.27-1.66h-1.56v3.42Z" fill="#1d1d1b"/><path d="M420.75,357.11h6.34v1.42h-4.72v3.29h4.29v1.42h-4.29v3.71h4.72v1.42h-6.34V357.11Z" fill="#1d1d1b"/><path d="M429.86,357.11h2.67l3.55,9.35,3.48-9.35h2.67v11.26h-1.62v-9.74h-.03l-3.74,9.74h-1.59l-3.74-9.74h-.03v9.74h-1.62V357.11Z" fill="#1d1d1b"/><path d="M445.21,357.11h6.34v1.42h-4.71v3.29h4.3v1.42h-4.3v3.71h4.71v1.42h-6.34V357.11Z" fill="#1d1d1b"/><path d="M454.29,357.11h2.21l4.99,9.06h.03v-9.06h1.62v11.26h-2.07l-5.12-9.26h-.03v9.26H454.3V357.11Z" fill="#1d1d1b"/><path d="M468.41,358.53h-3.52v-1.42h8.65v1.42h-3.52v9.84H468.4v-9.84Z" fill="#1d1d1b"/><path d="M481.94,357.11h1.62v11.26h-1.62Z" fill="#1d1d1b"/><path d="M486.59,357.11h2.21l4.99,9.06h.03v-9.06h1.62v11.26h-2.07l-5.12-9.26h-.03v9.26H486.6V357.11Z" fill="#1d1d1b"/><path d="M505.15,357.11h6.34v1.42h-4.71v3.29h4.29v1.42h-4.29v3.71h4.71v1.42h-6.34V357.11Z" fill="#1d1d1b"/><path d="M523.04,363.71c0,3.16-1.6,4.86-4.39,4.86s-4.39-1.69-4.39-4.86v-6.6h1.62v6.39c0,2.16.68,3.64,2.77,3.64s2.77-1.48,2.77-3.64v-6.39h1.62Z" fill="#1d1d1b"/><path d="M526,357.11h2.77c2.24,0,4.39.35,4.39,3.05a2.618,2.618,0,0,1-2.33,2.56v.03a1.878,1.878,0,0,1,1.1,1.13l2.14,4.48h-1.85l-1.73-3.9c-.5-1.1-1.04-1.1-1.9-1.1h-.97v5H526V357.1Zm1.62,4.84H529c1.54,0,2.45-.68,2.45-1.76,0-1.02-.78-1.66-2.27-1.66h-1.56Z" fill="#1d1d1b"/><path d="M541.02,356.92c3.44,0,5.45,2.48,5.45,5.82s-1.99,5.82-5.45,5.82-5.45-2.4-5.45-5.82S537.58,356.92,541.02,356.92Zm0,10.22c2.61,0,3.73-2.16,3.73-4.4s-1.23-4.42-3.73-4.4c-2.49-.02-3.73,2.11-3.73,4.4S538.41,367.14,541.02,367.14Z" fill="#1d1d1b"/><path d="M548.83,357.11h2.96c2.32,0,4.25.81,4.25,3.37s-1.96,3.39-4,3.39h-1.59v4.5h-1.62Zm1.62,5.34h1.6a2.035,2.035,0,0,0,2.27-1.98c0-1.48-1.49-1.94-2.5-1.94h-1.38v3.92Z" fill="#1d1d1b"/><path d="M558.17,357.11h6.34v1.42H559.8v3.29h4.29v1.42H559.8v3.71h4.71v1.42h-6.34V357.11Z" fill="#1d1d1b"/><path d="M335.01,276.86a37.92,37.92,0,0,0-13.73-2.68c-4.34,0-9.72,1.86-9.72,8.57,0,10.7,27.93,6.19,27.93,26.87,0,13.53-11.58,18.65-24.04,18.65-6.72,0-10.9-.88-17-2.39l1.15-11.64c4.24,2.3,10.28,4.3,15.14,4.3s10.96-2.39,10.96-7.96c0-11.76-27.05-6.9-27.05-27.32,0-13.79,10.7-18.83,21.57-18.83a54.406,54.406,0,0,1,15.94,2.21l-1.15,10.19Z" fill="#1d1d1b"/><path d="M348.61,265.52h12.38v24.93H383.1V265.52h12.38v61.7H383.1V300.17H360.99v27.05H348.61Z" fill="#1d1d1b"/><path d="M427.14,265.52h11.03l24.22,61.7h-13.7l-5.3-14.14H421.31l-5.39,14.14H403.1l24.05-61.7Zm5.34,13.84h-.18l-7.46,23.99h15.1l-7.46-23.99Z" fill="#1d1d1b"/><path d="M470.13,265.52h13.35c13.26,0,29.08-.44,29.08,16.71a14.113,14.113,0,0,1-12.73,14.32v.18c3.36.27,5.3,3.62,6.54,6.36l9.9,24.13H502.48l-7.43-19.27c-1.77-4.6-3.36-6.36-8.57-6.36H482.5v25.64H470.12v-61.7Zm12.38,26.34h4.07c6.1,0,13.08-.88,13.08-8.57s-6.89-8.04-13.08-8.04h-4.07v16.62Z" fill="#1d1d1b"/><path d="M524.55,265.52h38.48v9.72h-26.1v15.2H561v9.72H536.93v17.33h26.28v9.72H524.56v-61.7Z" fill="#1d1d1b"/><path d="M311.88,337.38l-4.55,1.89-.42,4.78-5.97.3-2.58,3.29,6.23-.15-6.75,5.34,2.13,1.37,6.5-5.02-.43,4.97,4.71-2.01.38-4.93,6.01-.29,2.44-3.27-6.18.14,6.49-5.16-2.12-1.29-6.25,4.78Z" fill="#ec6608"/><path d="M273.62,349.97l-3.81,5.86-3.9-1.94-4.02,3.12,3.94,2.24-8.13,4.09.28,2.57,7.74-3.79-4,6.14,4.43-.68,3.91-6.11,3.99,1.99,3.98-3.19-3.98-2.26,7.92-4-.38-2.47-7.47,3.64,3.74-5.84Z" fill="#ec6608"/><path d="M245.75,349.08l-2.89-.86-6.62,5.72-.68-3.91-4.61,2.27.44,4.3-7.61,1.83-1.82,3.26,7.16-1.59-6.93,5.99,2.93.95,6.92-6.02.66,4.07,4.72-2.38-.5-4.39,7.56-1.83,1.68-3.21-7.01,1.56Z" fill="#ec6608"/><path d="M214.58,334.5l-2.89,5.24-5.47-.54-3.37,3.21,5.06.67-8.14,4.62.9,2.2,8.16-4.67-2.63,5.13,4.34-1.14,2.93-5.43,5.54.54,3.29-3.24-5.04-.67,7.87-4.5-.98-2.06-7.84,4.45,2.45-4.87Z" fill="#ec6608"/><path d="M214.8,313.76l-2.21-2.49-3.98,2.42,1.89,2.5-7.26,2.34-1.21,2.75,7.32-2.37-5.05,4.82,2.9.26,5.46-5.08,2.25,2.57,3.99-2.5-1.95-2.53,7.17-2.32,1.05-2.67-7.11,2.29,4.81-4.62-2.81-.25Z" fill="#ec6608"/><path d="M238.63,289.65l2.42-2.71-5.64.45,5.86-3.79-1.45-1.12-6.26,3.94.4-3.46-3.86,1.54-.61,3.38-5.65.46-2.52,2.73,5.69-.47-6.07,3.92,1.44,1.18,6.49-4.09-.45,3.59,3.96-1.62.6-3.46Z" fill="#ec6608"/><path d="M263.28,268.56l3.32-2.32-3.35-1.29,5.97-2.44.05-1.74-6.28,2.48,2.78-3.79-3.19.53-2.84,3.62-3.31-1.27-3.35,2.28,3.33,1.28-6.09,2.49-.13,1.79,6.46-2.55-2.94,3.94,3.3-.56,2.9-3.74Z" fill="#ec6608"/><path d="M290.24,252.87l3.58-1.7-1.24-2.38,5.3-1.11,1.14-1.95-5.5,1.08,4.19-3.51-2.32-.27-4.11,3.29L290.07,244l-3.53,1.65,1.2,2.34-5.33,1.12-1.25,1.97,5.61-1.09-4.37,3.62,2.39.28,4.22-3.41Z" fill="#ec6608"/><path d="M319.16,241.51l3.39-.87,1.01-3.13,4.01.34,2.13-1.89-4.11-.44,5.09-2.76-1.2-1.02-4.88,2.55.99-3.03-3.32.83-1,3.03-3.98-.32-2.17,1.88,4.1.44-5.24,2.83,1.19,1.06,5.02-2.64Z" fill="#ec6608"/><path d="M357.95,227.49l-2.76.03-2.72,3.24-2.42-1.5-2.71,1.56,2.41,1.68-5.37,1.78.07,1.58,5.11-1.64-2.82,3.36,2.85-.04,2.79-3.36,2.46,1.54,2.7-1.6-2.45-1.69,5.29-1.77-.13-1.52-4.99,1.59Z" fill="#ec6608"/><path d="M369.08,240.31l1.96.84,4.27-3.16.59,2.59,2.99-1.07-.48-2.78,4.9-.5,1-1.87-4.56.38,4.14-3.05-1.93-.79-4.15,3.03-.59-2.51-2.95,1.04.46,2.72-4.9.5-1.06,1.88,4.6-.39Z" fill="#ec6608"/><path d="M383.04,250.48l.83,1.62,5.24-2.51-1.37,3.35,2.92-.4,1.56-3.55,3.92.9,2-1.97-3.58-.95,5.12-2.45-.87-1.56-5.11,2.44,1.29-3.22-2.83.36-1.55,3.44-3.85-.89-2.06,1.96,3.58.94Z" fill="#ec6608"/><rect width="54.17" height="62.36" transform="translate(578.25 265.15)" fill="#ec6608"/><rect width="3.92" height="62.36" transform="translate(636.57 265.15)" fill="#ec6608"/><path d="M588.52,273.95h10.71v2.86h-7.07v4.47h6.47v2.86h-6.47v5.1h7.12v2.86H588.51V273.95Z" fill="#fff"/><path d="M608.99,273.95h3.93c3.9,0,8.55-.13,8.55,4.91a4.15,4.15,0,0,1-3.74,4.21v.05c.99.08,1.56,1.07,1.92,1.87l2.91,7.1H618.5l-2.18-5.67c-.52-1.35-.99-1.87-2.52-1.87h-1.17v7.54h-3.64V273.94Zm3.64,7.75h1.2c1.79,0,3.85-.26,3.85-2.52s-2.03-2.37-3.85-2.37h-1.2v4.89Z" fill="#fff"/><path d="M591.67,301.45h3.64V319.6h-3.64Z" fill="#fff"/><path d="M621.99,319.34a18.6,18.6,0,0,1-4.13.57c-5.87,0-9.96-2.94-9.96-9.07s3.79-9.7,9.96-9.7a11.99,11.99,0,0,1,4.11.75l-.26,3.07a7.507,7.507,0,0,0-3.93-.96c-3.74,0-6.08,2.86-6.08,6.58s2.29,6.47,6.16,6.47a10.186,10.186,0,0,0,3.98-.75l.16,3.04Z" fill="#fff"/></g></svg>